#!OML:ASF F:\VICON\USERDATA\INSTALL\rory3\rory3.ASF
:FULLY-SPECIFIED
:DEGREES
77
root -6.3311038894283405 17.718371982950256 -2.082865109420546 -164.52064469639868 -10.67648036166593 -177.66570545061768
lfemur -20.95301324203867 -17.03336110760925 -15.224538087512531
ltibia 16.896421528686158
lfoot 41.53509447413845 -43.779634482439484
ltoes 68.7910135122261
rfemur 14.655846925026331 -9.217179597921882 19.161873596897305
rtibia 15.915338170241496
rfoot 25.672124016503076 -28.604777935184316
rtoes 19.2416341355991
lowerback -8.870479034682461 11.766172911786065 14.219092291753586
upperback -13.532629462056814 18.27344289451617 4.775038970705585
thorax -8.509283622524311 9.03521386712977 -2.080202579681777
lowerneck -5.638120159166661 -20.93288067679748 -3.2166517785185422
upperneck 3.420170853396808 -30.432001246682912 7.657077609743838
head 3.430205382401331 -14.921653904905183 0.8561447145221424
lclavicle -6.979713234772608e-15 -5.1152531788844085e-15
lhumerus 65.66510369989861 14.475294185692825 67.28632673641366
lradius 66.8112021504156
lwrist 27.06569311690191
lhand -21.24924957192131 19.175780896502065
lfingers 7.125020000000003
lthumb -176.14288156688815 355.1100321329126
rclavicle -7.003844671925744e-15 -5.147089049554884e-15
rhumerus 95.92379323316096 23.325212466216975 -53.32698634049607
rradius 30.49483009971893
rwrist -12.677091950529167
rhand -33.537620609356566 18.208594536992305
rfingers 7.125020000000003
rthumb -8.26000307144267 -6.045472529617209
78
root -6.332692889567476 17.734254964861197 -2.1323688864783725 -164.41878066341224 -10.904143463068309 -176.65964493842145
lfemur -21.435261670357868 -17.51857273740585 -14.47075790654196
ltibia 18.439066553616918
lfoot 40.00130014155029 -43.65536938825711
ltoes 67.78746625457477
rfemur 14.874667823380836 -9.122675111027222 19.688242448260524
rtibia 14.271927619942636
rfoot 28.335592490543434 -29.627570507534244
rtoes 20.91974516574358
lowerback -9.275813449371666 13.50931626494276 13.79831118390066
upperback -14.389016093288628 18.307817523665612 3.9944542800712117
thorax -8.693919403543358 8.024666728088397 -2.6960343329153984
lowerneck -5.417348461892392 -20.81317073138738 -3.726156327402789
upperneck 3.9483152176701815 -29.90658176576373 7.242584741047835
head 3.4733755265167616 -14.692314075517933 0.7943978086918293
lclavicle -6.983098194191154e-15 -5.108513772318897e-15
lhumerus 66.75678891140605 15.657163372257294 67.4746030012532
lradius 68.72149653877074
lwrist 24.787645430834566
lhand -21.61383145143611 19.254070318837105
lfingers 7.125020000000003
lthumb -176.84037722319658 348.01372457452953
rclavicle -7.001996066539617e-15 -5.145271910638433e-15
rhumerus 95.40899723630102 22.06118586136029 -53.268051188616155
rradius 31.882912517291082
rwrist -12.870539318455492
rhand -34.58048746191631 18.531324458850477
rfingers 7.125020000000003
rthumb -9.561795585661189 -5.643420965100749
79
root -6.332950653416784 17.72714932968255 -2.181215241696845 -164.166550383953 -11.22990382144772 -175.86380024125265
lfemur -21.73869851946365 -17.87137431213548 -13.96166445126197
ltibia 19.76662930275853
lfoot 39.06932001540732 -43.01406744715706
ltoes 67.46255722368123
rfemur 15.045265854531625 -8.978758507037677 19.83086767587099
rtibia 13.228168983506324
rfoot 30.27439349137476 -30.374886099755827
rtoes 22.923453373182127
lowerback -9.695026416971732 14.20456417253897 13.330671081250028
upperback -14.97767174362884 18.399091170224338 3.4267208060027414
thorax -8.741592819317228 7.5238014191402875 -3.169513185672553
lowerneck -5.37918490884193 -20.67607245379607 -4.137475227511249
upperneck 4.416341625086897 -29.547158278825965 6.911801882446823
head 3.476324198705358 -14.580133012845995 0.7448834731404272
lclavicle -6.9880658721824475e-15 -5.0729229763832075e-15
lhumerus 67.68721963054477 16.665757931831415 67.82128401788796
lradius 70.1052326959482
lwrist 22.529500689280514
lhand -21.966420148318676 19.25191031951583
lfingers 7.125020000000003
lthumb -177.78798064444302 345.5667796660676
rclavicle -6.999175222687713e-15 -5.1426929559867666e-15
rhumerus 94.56803279095743 21.141314347236303 -53.449721111358826
rradius 32.64530906860365
rwrist -13.401484873817077
rhand -35.34662744934204 18.841477297808133
rfingers 7.125020000000003
rthumb -10.674553497204164 -5.5905008815694845
80
root -6.327131354409895 17.737482232311493 -2.199397314767528 -164.2421505584887 -10.814417076625958 -175.51491977310906
lfemur -21.94494748344775 -17.65293240217132 -13.751891355851466
ltibia 20.867783517751192
lfoot 37.734032688214924 -42.44157932162787
ltoes 65.86643299043347
rfemur 15.013727904409464 -8.662580825668869 19.806140571303988
rtibia 12.623695180365843
rfoot 32.09460890344976 -30.428851154063757
rtoes 23.397357831641482
lowerback -9.97751959064674 14.436466018128185 13.012275945101306
upperback -15.365773570850948 18.392803465721894 2.9990673461696042
thorax -8.763153763206624 7.245828698824363 -3.553103805741091
lowerneck -5.245338038369738 -20.51739377901479 -4.539975076228681
upperneck 5.048519950389636 -29.187161513901263 6.480662789987133
head 3.5284758738332718 -14.52925470377923 0.6298878039310707
lclavicle -6.989289943379724e-15 -5.018797277317532e-15
lhumerus 68.14705604772931 17.224231723222907 67.81292577012195
lradius 71.04935155743524
lwrist 20.115588614449976
lhand -22.43573995974785 19.708389137710387
lfingers 7.125020000000003
lthumb -178.64671570002662 339.83392465948316
rclavicle -7.000549029257929e-15 -5.143785478513612e-15
rhumerus 93.52261779096773 20.584993097713678 -53.80508664779318
rradius 32.350776597409975
rwrist -14.291526222072992
rhand -35.93398182143335 19.244649213305184
rfingers 7.125020000000003
rthumb -11.595155505736113 -5.513804556937498
81
root -6.311879630429 17.742423537181377 -2.212824441552073 -164.1885611818434 -10.667298395273441 -175.30813886732165
lfemur -22.10389466032973 -17.147112848415226 -13.565868062128828
ltibia 21.683732571886388
lfoot 37.00986320304492 -41.752914676313786
ltoes 64.79875549097046
rfemur 14.87311915123157 -8.33731255571282 19.833365466492722
rtibia 12.389552607024775
rfoot 32.989518370439335 -31.00675816706842
rtoes 24.462475645037227
lowerback -10.254454380474538 14.776971143151648 12.729108154254149
upperback -15.638248656053527 18.288699251887415 2.4945698293972542
thorax -8.594185303122032 6.891682766166269 -3.9512123566975905
lowerneck -5.547838999899168 -20.261358478489853 -4.7728899196038315
upperneck 5.883603654431546 -28.573376304705103 5.937633454177967
head 3.724681853675061 -14.297300524705028 0.4332509772312554
lclavicle -6.9929486134382215e-15 -4.984093402654425e-15
lhumerus 68.13485371271597 17.477309504566463 67.42471601813219
lradius 71.50142537948861
lwrist 17.914504777305638
lhand -22.68135922791828 19.961350230812002
lfingers 7.125020000000003
lthumb -179.3584447163068 339.9784794811666
rclavicle -6.999226825835162e-15 -5.142836737941152e-15
rhumerus 92.375071574187 20.413907608585536 -54.30353607604887
rradius 31.39700306546701
rwrist -15.522566464109548
rhand -36.24110301909977 19.1898632960764
rfingers 7.125020000000003
rthumb -12.249331001435639 -5.891252839917755
82
root -6.294923236545456 17.75233500800269 -2.206546760358068 -164.439833592451 -10.203003619565187 -175.3010611703115
lfemur -22.23886804382493 -16.540134354661916 -13.37194746792144
ltibia 22.370723772022547
lfoot 36.071492021182365 -41.080547445002665
ltoes 63.52092841399045
rfemur 14.559734559573933 -7.912001612821701 19.7697704544129
rtibia 12.380484741606727
rfoot 33.701280518598814 -31.524588997732288
rtoes 24.64769053432433
lowerback -10.399225906172852 15.186057068522375 12.444732557086315
upperback -15.788965802184176 18.199131978447678 2.007168960416289
thorax -8.358008014620228 6.627995815068486 -4.2939588928154375
lowerneck -5.856647016782965 -19.801673736326418 -4.944034374487939
upperneck 6.768847374851197 -27.996103068469903 5.448033672022452
head 3.891761379140025 -14.211403790764184 0.22135835854060648
lclavicle -6.996590927795554e-15 -4.92248792950642e-15
lhumerus 67.9901029739304 17.673224107203602 66.90245741902935
lradius 71.54017282508568
lwrist 15.797102390430268
lhand -22.613402166231232 20.427683438498335
lfingers 7.125020000000003
lthumb -179.47942939473316 341.13223506907707
rclavicle -6.9961755305941464e-15 -5.141123659652388e-15
rhumerus 90.76370865231719 20.32342921965777 -55.12798955498687
rradius 30.0320020045622
rwrist -17.13967696270609
rhand -36.607546579879504 19.056590941238632
rfingers 7.125020000000003
rthumb -12.761432116206922 -6.210673547475995
